<mxfile host="app.diagrams.net" modified="2022-10-16T13:16:45.714Z" agent="5.0 (Windows NT 10.0; Win64; x64) AppleWebKit/537.36 (KHTML, like Gecko) Chrome/106.0.0.0 Safari/537.36" etag="j5Jc01s-_9x07CBur0TX" version="20.4.1" type="github">
  <diagram id="C5RBs43oDa-KdzZeNtuy" name="Page-1">
    <mxGraphModel dx="1929" dy="1000" grid="1" gridSize="10" guides="1" tooltips="1" connect="1" arrows="1" fold="1" page="1" pageScale="1" pageWidth="827" pageHeight="1169" math="0" shadow="0">
      <root>
        <mxCell id="WIyWlLk6GJQsqaUBKTNV-0" />
        <mxCell id="WIyWlLk6GJQsqaUBKTNV-1" parent="WIyWlLk6GJQsqaUBKTNV-0" />
        <mxCell id="s_mnrJMYpSLIAIfI4z18-0" value="&lt;font style=&quot;font-size: 24px;&quot;&gt;Архитектура&lt;/font&gt;&amp;nbsp;" style="rounded=1;whiteSpace=wrap;html=1;" vertex="1" parent="WIyWlLk6GJQsqaUBKTNV-1">
          <mxGeometry x="110" y="20" width="520" height="60" as="geometry" />
        </mxCell>
        <mxCell id="s_mnrJMYpSLIAIfI4z18-3" style="edgeStyle=orthogonalEdgeStyle;rounded=0;orthogonalLoop=1;jettySize=auto;html=1;exitX=0.5;exitY=1;exitDx=0;exitDy=0;fontSize=24;" edge="1" parent="WIyWlLk6GJQsqaUBKTNV-1">
          <mxGeometry relative="1" as="geometry">
            <mxPoint x="215" y="239.9999999999999" as="sourcePoint" />
            <mxPoint x="215" y="239.9999999999999" as="targetPoint" />
          </mxGeometry>
        </mxCell>
        <mxCell id="s_mnrJMYpSLIAIfI4z18-24" value="main-service" style="swimlane;startSize=40;horizontal=1;containerType=tree;fontSize=24;" vertex="1" parent="WIyWlLk6GJQsqaUBKTNV-1">
          <mxGeometry y="100" width="680" height="510" as="geometry" />
        </mxCell>
        <mxCell id="s_mnrJMYpSLIAIfI4z18-26" value="&lt;font style=&quot;font-size: 14px;&quot;&gt;EVENTS&lt;/font&gt;" style="whiteSpace=wrap;html=1;treeFolding=1;treeMoving=1;newEdgeStyle={&quot;edgeStyle&quot;:&quot;elbowEdgeStyle&quot;,&quot;startArrow&quot;:&quot;none&quot;,&quot;endArrow&quot;:&quot;none&quot;};fontSize=24;" vertex="1" parent="s_mnrJMYpSLIAIfI4z18-24">
          <mxGeometry x="10" y="50" width="120" height="40" as="geometry" />
        </mxCell>
        <mxCell id="s_mnrJMYpSLIAIfI4z18-31" value="" style="edgeStyle=elbowEdgeStyle;rounded=0;orthogonalLoop=1;jettySize=auto;html=1;elbow=vertical;startArrow=none;endArrow=none;" edge="1" source="s_mnrJMYpSLIAIfI4z18-26" target="s_mnrJMYpSLIAIfI4z18-32" parent="s_mnrJMYpSLIAIfI4z18-24">
          <mxGeometry relative="1" as="geometry" />
        </mxCell>
        <mxCell id="s_mnrJMYpSLIAIfI4z18-32" value="&lt;font style=&quot;font-size: 14px;&quot;&gt;public&lt;br&gt;private&lt;br&gt;admin&lt;/font&gt;" style="whiteSpace=wrap;html=1;treeFolding=1;treeMoving=1;newEdgeStyle={&quot;edgeStyle&quot;:&quot;elbowEdgeStyle&quot;,&quot;startArrow&quot;:&quot;none&quot;,&quot;endArrow&quot;:&quot;none&quot;};fontSize=24;" vertex="1" collapsed="1" parent="s_mnrJMYpSLIAIfI4z18-24">
          <mxGeometry x="10" y="150" width="120" height="90" as="geometry" />
        </mxCell>
        <mxCell id="s_mnrJMYpSLIAIfI4z18-33" style="edgeStyle=orthogonalEdgeStyle;rounded=0;orthogonalLoop=1;jettySize=auto;html=1;exitX=0.5;exitY=1;exitDx=0;exitDy=0;entryX=0.443;entryY=0.996;entryDx=0;entryDy=0;entryPerimeter=0;fontSize=24;" edge="1" parent="s_mnrJMYpSLIAIfI4z18-24" source="s_mnrJMYpSLIAIfI4z18-32" target="s_mnrJMYpSLIAIfI4z18-32" visible="0">
          <mxGeometry relative="1" as="geometry" />
        </mxCell>
        <mxCell id="s_mnrJMYpSLIAIfI4z18-39" style="edgeStyle=orthogonalEdgeStyle;rounded=0;orthogonalLoop=1;jettySize=auto;html=1;exitX=0.5;exitY=1;exitDx=0;exitDy=0;fontSize=24;" edge="1" parent="s_mnrJMYpSLIAIfI4z18-24" source="s_mnrJMYpSLIAIfI4z18-32" target="s_mnrJMYpSLIAIfI4z18-32">
          <mxGeometry relative="1" as="geometry" />
        </mxCell>
        <mxCell id="s_mnrJMYpSLIAIfI4z18-41" style="edgeStyle=orthogonalEdgeStyle;rounded=0;orthogonalLoop=1;jettySize=auto;html=1;exitX=0.5;exitY=1;exitDx=0;exitDy=0;fontSize=24;" edge="1" parent="s_mnrJMYpSLIAIfI4z18-24" source="s_mnrJMYpSLIAIfI4z18-32" target="s_mnrJMYpSLIAIfI4z18-32">
          <mxGeometry relative="1" as="geometry" />
        </mxCell>
        <mxCell id="s_mnrJMYpSLIAIfI4z18-43" value="&lt;font style=&quot;font-size: 12px;&quot;&gt;CONTROLLER&lt;/font&gt;" style="ellipse;whiteSpace=wrap;html=1;align=center;fontSize=24;" vertex="1" parent="s_mnrJMYpSLIAIfI4z18-24">
          <mxGeometry x="16.25" y="100" width="107.5" height="40" as="geometry" />
        </mxCell>
        <mxCell id="s_mnrJMYpSLIAIfI4z18-56" value="&lt;span style=&quot;font-size: 14px;&quot;&gt;COMPILATION&lt;/span&gt;" style="whiteSpace=wrap;html=1;treeFolding=1;treeMoving=1;newEdgeStyle={&quot;edgeStyle&quot;:&quot;elbowEdgeStyle&quot;,&quot;startArrow&quot;:&quot;none&quot;,&quot;endArrow&quot;:&quot;none&quot;};fontSize=24;" vertex="1" parent="s_mnrJMYpSLIAIfI4z18-24">
          <mxGeometry x="150" y="50" width="120" height="40" as="geometry" />
        </mxCell>
        <mxCell id="s_mnrJMYpSLIAIfI4z18-57" value="" style="edgeStyle=elbowEdgeStyle;rounded=0;orthogonalLoop=1;jettySize=auto;html=1;elbow=vertical;startArrow=none;endArrow=none;" edge="1" parent="s_mnrJMYpSLIAIfI4z18-24" source="s_mnrJMYpSLIAIfI4z18-56" target="s_mnrJMYpSLIAIfI4z18-58">
          <mxGeometry relative="1" as="geometry" />
        </mxCell>
        <mxCell id="s_mnrJMYpSLIAIfI4z18-58" value="&lt;font style=&quot;font-size: 14px;&quot;&gt;public&lt;br&gt;admin&lt;/font&gt;" style="whiteSpace=wrap;html=1;treeFolding=1;treeMoving=1;newEdgeStyle={&quot;edgeStyle&quot;:&quot;elbowEdgeStyle&quot;,&quot;startArrow&quot;:&quot;none&quot;,&quot;endArrow&quot;:&quot;none&quot;};fontSize=24;" vertex="1" collapsed="1" parent="s_mnrJMYpSLIAIfI4z18-24">
          <mxGeometry x="150" y="150" width="120" height="90" as="geometry" />
        </mxCell>
        <mxCell id="s_mnrJMYpSLIAIfI4z18-59" style="edgeStyle=orthogonalEdgeStyle;rounded=0;orthogonalLoop=1;jettySize=auto;html=1;exitX=0.5;exitY=1;exitDx=0;exitDy=0;fontSize=24;" edge="1" parent="s_mnrJMYpSLIAIfI4z18-24" source="s_mnrJMYpSLIAIfI4z18-58" target="s_mnrJMYpSLIAIfI4z18-58">
          <mxGeometry relative="1" as="geometry" />
        </mxCell>
        <mxCell id="s_mnrJMYpSLIAIfI4z18-60" style="edgeStyle=orthogonalEdgeStyle;rounded=0;orthogonalLoop=1;jettySize=auto;html=1;exitX=0.5;exitY=1;exitDx=0;exitDy=0;fontSize=24;" edge="1" parent="s_mnrJMYpSLIAIfI4z18-24" source="s_mnrJMYpSLIAIfI4z18-58" target="s_mnrJMYpSLIAIfI4z18-58">
          <mxGeometry relative="1" as="geometry" />
        </mxCell>
        <mxCell id="s_mnrJMYpSLIAIfI4z18-61" value="&lt;font style=&quot;font-size: 12px;&quot;&gt;CONTROLLER&lt;/font&gt;" style="ellipse;whiteSpace=wrap;html=1;align=center;fontSize=24;" vertex="1" parent="s_mnrJMYpSLIAIfI4z18-24">
          <mxGeometry x="156.25" y="100" width="107.5" height="40" as="geometry" />
        </mxCell>
        <mxCell id="s_mnrJMYpSLIAIfI4z18-62" value="&lt;font style=&quot;font-size: 14px;&quot;&gt;CATEGORIES&lt;/font&gt;" style="whiteSpace=wrap;html=1;treeFolding=1;treeMoving=1;newEdgeStyle={&quot;edgeStyle&quot;:&quot;elbowEdgeStyle&quot;,&quot;startArrow&quot;:&quot;none&quot;,&quot;endArrow&quot;:&quot;none&quot;};fontSize=24;" vertex="1" parent="s_mnrJMYpSLIAIfI4z18-24">
          <mxGeometry x="290" y="49.05000000000001" width="120" height="40" as="geometry" />
        </mxCell>
        <mxCell id="s_mnrJMYpSLIAIfI4z18-63" value="" style="edgeStyle=elbowEdgeStyle;rounded=0;orthogonalLoop=1;jettySize=auto;html=1;elbow=vertical;startArrow=none;endArrow=none;" edge="1" parent="s_mnrJMYpSLIAIfI4z18-24" source="s_mnrJMYpSLIAIfI4z18-62" target="s_mnrJMYpSLIAIfI4z18-64">
          <mxGeometry relative="1" as="geometry" />
        </mxCell>
        <mxCell id="s_mnrJMYpSLIAIfI4z18-64" value="&lt;font style=&quot;font-size: 14px;&quot;&gt;public&lt;br&gt;admin&lt;/font&gt;" style="whiteSpace=wrap;html=1;treeFolding=1;treeMoving=1;newEdgeStyle={&quot;edgeStyle&quot;:&quot;elbowEdgeStyle&quot;,&quot;startArrow&quot;:&quot;none&quot;,&quot;endArrow&quot;:&quot;none&quot;};fontSize=24;" vertex="1" collapsed="1" parent="s_mnrJMYpSLIAIfI4z18-24">
          <mxGeometry x="290" y="149.05" width="120" height="90" as="geometry" />
        </mxCell>
        <mxCell id="s_mnrJMYpSLIAIfI4z18-65" style="edgeStyle=orthogonalEdgeStyle;rounded=0;orthogonalLoop=1;jettySize=auto;html=1;exitX=0.5;exitY=1;exitDx=0;exitDy=0;fontSize=24;" edge="1" parent="s_mnrJMYpSLIAIfI4z18-24" source="s_mnrJMYpSLIAIfI4z18-64" target="s_mnrJMYpSLIAIfI4z18-64">
          <mxGeometry relative="1" as="geometry" />
        </mxCell>
        <mxCell id="s_mnrJMYpSLIAIfI4z18-66" style="edgeStyle=orthogonalEdgeStyle;rounded=0;orthogonalLoop=1;jettySize=auto;html=1;exitX=0.5;exitY=1;exitDx=0;exitDy=0;fontSize=24;" edge="1" parent="s_mnrJMYpSLIAIfI4z18-24" source="s_mnrJMYpSLIAIfI4z18-64" target="s_mnrJMYpSLIAIfI4z18-64">
          <mxGeometry relative="1" as="geometry" />
        </mxCell>
        <mxCell id="s_mnrJMYpSLIAIfI4z18-67" value="&lt;font style=&quot;font-size: 12px;&quot;&gt;CONTROLLER&lt;/font&gt;" style="ellipse;whiteSpace=wrap;html=1;align=center;fontSize=24;" vertex="1" parent="s_mnrJMYpSLIAIfI4z18-24">
          <mxGeometry x="296.25" y="99.05000000000001" width="107.5" height="40" as="geometry" />
        </mxCell>
        <mxCell id="s_mnrJMYpSLIAIfI4z18-68" value="&lt;span style=&quot;font-size: 14px;&quot;&gt;REQUESTS&lt;/span&gt;" style="whiteSpace=wrap;html=1;treeFolding=1;treeMoving=1;newEdgeStyle={&quot;edgeStyle&quot;:&quot;elbowEdgeStyle&quot;,&quot;startArrow&quot;:&quot;none&quot;,&quot;endArrow&quot;:&quot;none&quot;};fontSize=24;" vertex="1" parent="s_mnrJMYpSLIAIfI4z18-24">
          <mxGeometry x="420" y="49.05000000000001" width="120" height="40" as="geometry" />
        </mxCell>
        <mxCell id="s_mnrJMYpSLIAIfI4z18-69" value="" style="edgeStyle=elbowEdgeStyle;rounded=0;orthogonalLoop=1;jettySize=auto;html=1;elbow=vertical;startArrow=none;endArrow=none;" edge="1" parent="s_mnrJMYpSLIAIfI4z18-24" source="s_mnrJMYpSLIAIfI4z18-68" target="s_mnrJMYpSLIAIfI4z18-70">
          <mxGeometry relative="1" as="geometry" />
        </mxCell>
        <mxCell id="s_mnrJMYpSLIAIfI4z18-70" value="&lt;span style=&quot;font-size: 14px;&quot;&gt;private&lt;/span&gt;" style="whiteSpace=wrap;html=1;treeFolding=1;treeMoving=1;newEdgeStyle={&quot;edgeStyle&quot;:&quot;elbowEdgeStyle&quot;,&quot;startArrow&quot;:&quot;none&quot;,&quot;endArrow&quot;:&quot;none&quot;};fontSize=24;" vertex="1" collapsed="1" parent="s_mnrJMYpSLIAIfI4z18-24">
          <mxGeometry x="420" y="149.05" width="120" height="90" as="geometry" />
        </mxCell>
        <mxCell id="s_mnrJMYpSLIAIfI4z18-71" style="edgeStyle=orthogonalEdgeStyle;rounded=0;orthogonalLoop=1;jettySize=auto;html=1;exitX=0.5;exitY=1;exitDx=0;exitDy=0;fontSize=24;" edge="1" parent="s_mnrJMYpSLIAIfI4z18-24" source="s_mnrJMYpSLIAIfI4z18-70" target="s_mnrJMYpSLIAIfI4z18-70">
          <mxGeometry relative="1" as="geometry" />
        </mxCell>
        <mxCell id="s_mnrJMYpSLIAIfI4z18-72" style="edgeStyle=orthogonalEdgeStyle;rounded=0;orthogonalLoop=1;jettySize=auto;html=1;exitX=0.5;exitY=1;exitDx=0;exitDy=0;fontSize=24;" edge="1" parent="s_mnrJMYpSLIAIfI4z18-24" source="s_mnrJMYpSLIAIfI4z18-70" target="s_mnrJMYpSLIAIfI4z18-70">
          <mxGeometry relative="1" as="geometry" />
        </mxCell>
        <mxCell id="s_mnrJMYpSLIAIfI4z18-73" value="&lt;font style=&quot;font-size: 12px;&quot;&gt;CONTROLLER&lt;/font&gt;" style="ellipse;whiteSpace=wrap;html=1;align=center;fontSize=24;" vertex="1" parent="s_mnrJMYpSLIAIfI4z18-24">
          <mxGeometry x="426.25" y="99.05000000000001" width="107.5" height="40" as="geometry" />
        </mxCell>
        <mxCell id="s_mnrJMYpSLIAIfI4z18-74" value="&lt;font style=&quot;font-size: 14px;&quot;&gt;USERS&lt;/font&gt;" style="whiteSpace=wrap;html=1;treeFolding=1;treeMoving=1;newEdgeStyle={&quot;edgeStyle&quot;:&quot;elbowEdgeStyle&quot;,&quot;startArrow&quot;:&quot;none&quot;,&quot;endArrow&quot;:&quot;none&quot;};fontSize=24;" vertex="1" parent="s_mnrJMYpSLIAIfI4z18-24">
          <mxGeometry x="550" y="50" width="120" height="40" as="geometry" />
        </mxCell>
        <mxCell id="s_mnrJMYpSLIAIfI4z18-75" value="" style="edgeStyle=elbowEdgeStyle;rounded=0;orthogonalLoop=1;jettySize=auto;html=1;elbow=vertical;startArrow=none;endArrow=none;" edge="1" parent="s_mnrJMYpSLIAIfI4z18-24" source="s_mnrJMYpSLIAIfI4z18-74" target="s_mnrJMYpSLIAIfI4z18-76">
          <mxGeometry relative="1" as="geometry" />
        </mxCell>
        <mxCell id="s_mnrJMYpSLIAIfI4z18-76" value="&lt;span style=&quot;font-size: 14px;&quot;&gt;admin&lt;/span&gt;" style="whiteSpace=wrap;html=1;treeFolding=1;treeMoving=1;newEdgeStyle={&quot;edgeStyle&quot;:&quot;elbowEdgeStyle&quot;,&quot;startArrow&quot;:&quot;none&quot;,&quot;endArrow&quot;:&quot;none&quot;};fontSize=24;" vertex="1" collapsed="1" parent="s_mnrJMYpSLIAIfI4z18-24">
          <mxGeometry x="550" y="150" width="120" height="90" as="geometry" />
        </mxCell>
        <mxCell id="s_mnrJMYpSLIAIfI4z18-77" style="edgeStyle=orthogonalEdgeStyle;rounded=0;orthogonalLoop=1;jettySize=auto;html=1;exitX=0.5;exitY=1;exitDx=0;exitDy=0;fontSize=24;" edge="1" parent="s_mnrJMYpSLIAIfI4z18-24" source="s_mnrJMYpSLIAIfI4z18-76" target="s_mnrJMYpSLIAIfI4z18-76">
          <mxGeometry relative="1" as="geometry" />
        </mxCell>
        <mxCell id="s_mnrJMYpSLIAIfI4z18-78" style="edgeStyle=orthogonalEdgeStyle;rounded=0;orthogonalLoop=1;jettySize=auto;html=1;exitX=0.5;exitY=1;exitDx=0;exitDy=0;fontSize=24;" edge="1" parent="s_mnrJMYpSLIAIfI4z18-24" source="s_mnrJMYpSLIAIfI4z18-76" target="s_mnrJMYpSLIAIfI4z18-76">
          <mxGeometry relative="1" as="geometry" />
        </mxCell>
        <mxCell id="s_mnrJMYpSLIAIfI4z18-79" value="&lt;font style=&quot;font-size: 12px;&quot;&gt;CONTROLLER&lt;/font&gt;" style="ellipse;whiteSpace=wrap;html=1;align=center;fontSize=24;" vertex="1" parent="s_mnrJMYpSLIAIfI4z18-24">
          <mxGeometry x="556.25" y="100" width="107.5" height="40" as="geometry" />
        </mxCell>
        <mxCell id="s_mnrJMYpSLIAIfI4z18-83" value="" style="edgeStyle=elbowEdgeStyle;rounded=0;orthogonalLoop=1;jettySize=auto;html=1;elbow=vertical;startArrow=none;endArrow=none;" edge="1" target="s_mnrJMYpSLIAIfI4z18-84" source="s_mnrJMYpSLIAIfI4z18-32" parent="s_mnrJMYpSLIAIfI4z18-24">
          <mxGeometry relative="1" as="geometry">
            <mxPoint x="70" y="190" as="sourcePoint" />
          </mxGeometry>
        </mxCell>
        <mxCell id="s_mnrJMYpSLIAIfI4z18-84" value="&lt;span style=&quot;font-size: 14px;&quot;&gt;service&lt;/span&gt;" style="whiteSpace=wrap;html=1;treeFolding=1;treeMoving=1;newEdgeStyle={&quot;edgeStyle&quot;:&quot;elbowEdgeStyle&quot;,&quot;startArrow&quot;:&quot;none&quot;,&quot;endArrow&quot;:&quot;none&quot;};fontSize=24;" vertex="1" collapsed="1" parent="s_mnrJMYpSLIAIfI4z18-24">
          <mxGeometry x="10" y="280" width="120" height="90" as="geometry" />
        </mxCell>
        <mxCell id="s_mnrJMYpSLIAIfI4z18-85" value="" style="edgeStyle=elbowEdgeStyle;rounded=0;orthogonalLoop=1;jettySize=auto;html=1;elbow=vertical;startArrow=none;endArrow=none;" edge="1" target="s_mnrJMYpSLIAIfI4z18-86" source="s_mnrJMYpSLIAIfI4z18-84" parent="s_mnrJMYpSLIAIfI4z18-24">
          <mxGeometry relative="1" as="geometry">
            <mxPoint x="70" y="340" as="sourcePoint" />
          </mxGeometry>
        </mxCell>
        <mxCell id="s_mnrJMYpSLIAIfI4z18-86" value="&lt;span style=&quot;font-size: 14px;&quot;&gt;repository&lt;/span&gt;" style="whiteSpace=wrap;html=1;treeFolding=1;treeMoving=1;newEdgeStyle={&quot;edgeStyle&quot;:&quot;elbowEdgeStyle&quot;,&quot;startArrow&quot;:&quot;none&quot;,&quot;endArrow&quot;:&quot;none&quot;};fontSize=24;" vertex="1" collapsed="1" parent="s_mnrJMYpSLIAIfI4z18-24">
          <mxGeometry x="10" y="410" width="120" height="90" as="geometry" />
        </mxCell>
        <mxCell id="s_mnrJMYpSLIAIfI4z18-87" value="" style="edgeStyle=elbowEdgeStyle;rounded=0;orthogonalLoop=1;jettySize=auto;html=1;elbow=vertical;startArrow=none;endArrow=none;" edge="1" target="s_mnrJMYpSLIAIfI4z18-88" source="s_mnrJMYpSLIAIfI4z18-58" parent="s_mnrJMYpSLIAIfI4z18-24">
          <mxGeometry relative="1" as="geometry">
            <mxPoint x="210" y="190" as="sourcePoint" />
          </mxGeometry>
        </mxCell>
        <mxCell id="s_mnrJMYpSLIAIfI4z18-88" value="&lt;span style=&quot;font-size: 14px;&quot;&gt;service&lt;/span&gt;" style="whiteSpace=wrap;html=1;treeFolding=1;treeMoving=1;newEdgeStyle={&quot;edgeStyle&quot;:&quot;elbowEdgeStyle&quot;,&quot;startArrow&quot;:&quot;none&quot;,&quot;endArrow&quot;:&quot;none&quot;};fontSize=24;" vertex="1" collapsed="1" parent="s_mnrJMYpSLIAIfI4z18-24">
          <mxGeometry x="150" y="280" width="120" height="90" as="geometry" />
        </mxCell>
        <mxCell id="s_mnrJMYpSLIAIfI4z18-89" value="" style="edgeStyle=elbowEdgeStyle;rounded=0;orthogonalLoop=1;jettySize=auto;html=1;elbow=vertical;startArrow=none;endArrow=none;" edge="1" target="s_mnrJMYpSLIAIfI4z18-90" source="s_mnrJMYpSLIAIfI4z18-88" parent="s_mnrJMYpSLIAIfI4z18-24">
          <mxGeometry relative="1" as="geometry">
            <mxPoint x="210" y="340" as="sourcePoint" />
          </mxGeometry>
        </mxCell>
        <mxCell id="s_mnrJMYpSLIAIfI4z18-90" value="&lt;span style=&quot;font-size: 14px;&quot;&gt;repository&lt;/span&gt;" style="whiteSpace=wrap;html=1;treeFolding=1;treeMoving=1;newEdgeStyle={&quot;edgeStyle&quot;:&quot;elbowEdgeStyle&quot;,&quot;startArrow&quot;:&quot;none&quot;,&quot;endArrow&quot;:&quot;none&quot;};fontSize=24;" vertex="1" collapsed="1" parent="s_mnrJMYpSLIAIfI4z18-24">
          <mxGeometry x="150" y="410" width="120" height="90" as="geometry" />
        </mxCell>
        <mxCell id="s_mnrJMYpSLIAIfI4z18-91" value="" style="edgeStyle=elbowEdgeStyle;rounded=0;orthogonalLoop=1;jettySize=auto;html=1;elbow=vertical;startArrow=none;endArrow=none;" edge="1" target="s_mnrJMYpSLIAIfI4z18-92" source="s_mnrJMYpSLIAIfI4z18-64" parent="s_mnrJMYpSLIAIfI4z18-24">
          <mxGeometry relative="1" as="geometry">
            <mxPoint x="350" y="189.04999999999995" as="sourcePoint" />
          </mxGeometry>
        </mxCell>
        <mxCell id="s_mnrJMYpSLIAIfI4z18-92" value="&lt;span style=&quot;font-size: 14px;&quot;&gt;service&lt;/span&gt;" style="whiteSpace=wrap;html=1;treeFolding=1;treeMoving=1;newEdgeStyle={&quot;edgeStyle&quot;:&quot;elbowEdgeStyle&quot;,&quot;startArrow&quot;:&quot;none&quot;,&quot;endArrow&quot;:&quot;none&quot;};fontSize=24;" vertex="1" collapsed="1" parent="s_mnrJMYpSLIAIfI4z18-24">
          <mxGeometry x="290" y="279.05" width="120" height="90" as="geometry" />
        </mxCell>
        <mxCell id="s_mnrJMYpSLIAIfI4z18-93" value="" style="edgeStyle=elbowEdgeStyle;rounded=0;orthogonalLoop=1;jettySize=auto;html=1;elbow=vertical;startArrow=none;endArrow=none;" edge="1" target="s_mnrJMYpSLIAIfI4z18-94" source="s_mnrJMYpSLIAIfI4z18-92" parent="s_mnrJMYpSLIAIfI4z18-24">
          <mxGeometry relative="1" as="geometry">
            <mxPoint x="350" y="339.04999999999995" as="sourcePoint" />
          </mxGeometry>
        </mxCell>
        <mxCell id="s_mnrJMYpSLIAIfI4z18-94" value="&lt;span style=&quot;font-size: 14px;&quot;&gt;repository&lt;/span&gt;" style="whiteSpace=wrap;html=1;treeFolding=1;treeMoving=1;newEdgeStyle={&quot;edgeStyle&quot;:&quot;elbowEdgeStyle&quot;,&quot;startArrow&quot;:&quot;none&quot;,&quot;endArrow&quot;:&quot;none&quot;};fontSize=24;" vertex="1" collapsed="1" parent="s_mnrJMYpSLIAIfI4z18-24">
          <mxGeometry x="290" y="409.05" width="120" height="90" as="geometry" />
        </mxCell>
        <mxCell id="s_mnrJMYpSLIAIfI4z18-95" value="" style="edgeStyle=elbowEdgeStyle;rounded=0;orthogonalLoop=1;jettySize=auto;html=1;elbow=vertical;startArrow=none;endArrow=none;" edge="1" target="s_mnrJMYpSLIAIfI4z18-96" source="s_mnrJMYpSLIAIfI4z18-70" parent="s_mnrJMYpSLIAIfI4z18-24">
          <mxGeometry relative="1" as="geometry">
            <mxPoint x="480" y="189.04999999999995" as="sourcePoint" />
          </mxGeometry>
        </mxCell>
        <mxCell id="s_mnrJMYpSLIAIfI4z18-96" value="&lt;span style=&quot;font-size: 14px;&quot;&gt;service&lt;/span&gt;" style="whiteSpace=wrap;html=1;treeFolding=1;treeMoving=1;newEdgeStyle={&quot;edgeStyle&quot;:&quot;elbowEdgeStyle&quot;,&quot;startArrow&quot;:&quot;none&quot;,&quot;endArrow&quot;:&quot;none&quot;};fontSize=24;" vertex="1" collapsed="1" parent="s_mnrJMYpSLIAIfI4z18-24">
          <mxGeometry x="420" y="279.05" width="120" height="90" as="geometry" />
        </mxCell>
        <mxCell id="s_mnrJMYpSLIAIfI4z18-97" value="" style="edgeStyle=elbowEdgeStyle;rounded=0;orthogonalLoop=1;jettySize=auto;html=1;elbow=vertical;startArrow=none;endArrow=none;" edge="1" target="s_mnrJMYpSLIAIfI4z18-98" source="s_mnrJMYpSLIAIfI4z18-96" parent="s_mnrJMYpSLIAIfI4z18-24">
          <mxGeometry relative="1" as="geometry">
            <mxPoint x="480" y="339.04999999999995" as="sourcePoint" />
          </mxGeometry>
        </mxCell>
        <mxCell id="s_mnrJMYpSLIAIfI4z18-98" value="&lt;span style=&quot;font-size: 14px;&quot;&gt;repository&lt;/span&gt;" style="whiteSpace=wrap;html=1;treeFolding=1;treeMoving=1;newEdgeStyle={&quot;edgeStyle&quot;:&quot;elbowEdgeStyle&quot;,&quot;startArrow&quot;:&quot;none&quot;,&quot;endArrow&quot;:&quot;none&quot;};fontSize=24;" vertex="1" collapsed="1" parent="s_mnrJMYpSLIAIfI4z18-24">
          <mxGeometry x="420" y="409.05" width="120" height="90" as="geometry" />
        </mxCell>
        <mxCell id="s_mnrJMYpSLIAIfI4z18-99" value="" style="edgeStyle=elbowEdgeStyle;rounded=0;orthogonalLoop=1;jettySize=auto;html=1;elbow=vertical;startArrow=none;endArrow=none;" edge="1" target="s_mnrJMYpSLIAIfI4z18-100" source="s_mnrJMYpSLIAIfI4z18-76" parent="s_mnrJMYpSLIAIfI4z18-24">
          <mxGeometry relative="1" as="geometry">
            <mxPoint x="610" y="190" as="sourcePoint" />
          </mxGeometry>
        </mxCell>
        <mxCell id="s_mnrJMYpSLIAIfI4z18-100" value="&lt;span style=&quot;font-size: 14px;&quot;&gt;service&lt;/span&gt;" style="whiteSpace=wrap;html=1;treeFolding=1;treeMoving=1;newEdgeStyle={&quot;edgeStyle&quot;:&quot;elbowEdgeStyle&quot;,&quot;startArrow&quot;:&quot;none&quot;,&quot;endArrow&quot;:&quot;none&quot;};fontSize=24;" vertex="1" collapsed="1" parent="s_mnrJMYpSLIAIfI4z18-24">
          <mxGeometry x="550" y="280" width="120" height="90" as="geometry" />
        </mxCell>
        <mxCell id="s_mnrJMYpSLIAIfI4z18-101" value="" style="edgeStyle=elbowEdgeStyle;rounded=0;orthogonalLoop=1;jettySize=auto;html=1;elbow=vertical;startArrow=none;endArrow=none;" edge="1" target="s_mnrJMYpSLIAIfI4z18-102" source="s_mnrJMYpSLIAIfI4z18-100" parent="s_mnrJMYpSLIAIfI4z18-24">
          <mxGeometry relative="1" as="geometry">
            <mxPoint x="610" y="340" as="sourcePoint" />
          </mxGeometry>
        </mxCell>
        <mxCell id="s_mnrJMYpSLIAIfI4z18-102" value="&lt;span style=&quot;font-size: 14px;&quot;&gt;repository&lt;/span&gt;" style="whiteSpace=wrap;html=1;treeFolding=1;treeMoving=1;newEdgeStyle={&quot;edgeStyle&quot;:&quot;elbowEdgeStyle&quot;,&quot;startArrow&quot;:&quot;none&quot;,&quot;endArrow&quot;:&quot;none&quot;};fontSize=24;" vertex="1" collapsed="1" parent="s_mnrJMYpSLIAIfI4z18-24">
          <mxGeometry x="550" y="410" width="120" height="90" as="geometry" />
        </mxCell>
        <mxCell id="s_mnrJMYpSLIAIfI4z18-108" value="MAIN-SERVICE&lt;br&gt;DATABASE" style="rounded=1;whiteSpace=wrap;html=1;fontSize=12;" vertex="1" parent="WIyWlLk6GJQsqaUBKTNV-1">
          <mxGeometry x="707" y="350" width="120" height="60" as="geometry" />
        </mxCell>
        <mxCell id="s_mnrJMYpSLIAIfI4z18-110" value="" style="endArrow=block;startArrow=block;endFill=1;startFill=1;html=1;rounded=0;fontSize=12;" edge="1" parent="WIyWlLk6GJQsqaUBKTNV-1">
          <mxGeometry width="160" relative="1" as="geometry">
            <mxPoint x="677" y="379.86" as="sourcePoint" />
            <mxPoint x="707" y="380" as="targetPoint" />
          </mxGeometry>
        </mxCell>
        <mxCell id="s_mnrJMYpSLIAIfI4z18-111" value="stat-service" style="swimlane;startSize=40;horizontal=1;containerType=tree;fontSize=24;" vertex="1" parent="WIyWlLk6GJQsqaUBKTNV-1">
          <mxGeometry y="710" width="680" height="280" as="geometry" />
        </mxCell>
        <mxCell id="s_mnrJMYpSLIAIfI4z18-112" value="&lt;span style=&quot;font-size: 14px;&quot;&gt;STATS CONTROLLER&lt;/span&gt;" style="whiteSpace=wrap;html=1;treeFolding=1;treeMoving=1;newEdgeStyle={&quot;edgeStyle&quot;:&quot;elbowEdgeStyle&quot;,&quot;startArrow&quot;:&quot;none&quot;,&quot;endArrow&quot;:&quot;none&quot;};fontSize=24;" vertex="1" parent="s_mnrJMYpSLIAIfI4z18-111">
          <mxGeometry x="10" y="50" width="240" height="40" as="geometry" />
        </mxCell>
        <mxCell id="s_mnrJMYpSLIAIfI4z18-167" value="" style="edgeStyle=elbowEdgeStyle;rounded=0;orthogonalLoop=1;jettySize=auto;html=1;elbow=vertical;startArrow=none;endArrow=none;" edge="1" source="s_mnrJMYpSLIAIfI4z18-112" target="s_mnrJMYpSLIAIfI4z18-168" parent="s_mnrJMYpSLIAIfI4z18-111">
          <mxGeometry relative="1" as="geometry" />
        </mxCell>
        <mxCell id="s_mnrJMYpSLIAIfI4z18-168" value="&lt;span style=&quot;font-size: 14px;&quot;&gt;SERVICE&lt;/span&gt;" style="whiteSpace=wrap;html=1;treeFolding=1;treeMoving=1;newEdgeStyle={&quot;edgeStyle&quot;:&quot;elbowEdgeStyle&quot;,&quot;startArrow&quot;:&quot;none&quot;,&quot;endArrow&quot;:&quot;none&quot;};fontSize=24;" vertex="1" parent="s_mnrJMYpSLIAIfI4z18-111">
          <mxGeometry x="10" y="130" width="240" height="40" as="geometry" />
        </mxCell>
        <mxCell id="s_mnrJMYpSLIAIfI4z18-169" value="" style="edgeStyle=elbowEdgeStyle;rounded=0;orthogonalLoop=1;jettySize=auto;html=1;elbow=vertical;startArrow=none;endArrow=none;" edge="1" target="s_mnrJMYpSLIAIfI4z18-170" source="s_mnrJMYpSLIAIfI4z18-168" parent="s_mnrJMYpSLIAIfI4z18-111">
          <mxGeometry relative="1" as="geometry">
            <mxPoint x="129.9999999999999" y="710" as="sourcePoint" />
          </mxGeometry>
        </mxCell>
        <mxCell id="s_mnrJMYpSLIAIfI4z18-170" value="&lt;span style=&quot;font-size: 14px;&quot;&gt;REPOSITORY&lt;/span&gt;" style="whiteSpace=wrap;html=1;treeFolding=1;treeMoving=1;newEdgeStyle={&quot;edgeStyle&quot;:&quot;elbowEdgeStyle&quot;,&quot;startArrow&quot;:&quot;none&quot;,&quot;endArrow&quot;:&quot;none&quot;};fontSize=24;" vertex="1" parent="s_mnrJMYpSLIAIfI4z18-111">
          <mxGeometry x="10" y="210" width="240" height="40" as="geometry" />
        </mxCell>
        <mxCell id="s_mnrJMYpSLIAIfI4z18-171" value="" style="shape=doubleArrow;direction=south;whiteSpace=wrap;html=1;fontSize=12;" vertex="1" parent="WIyWlLk6GJQsqaUBKTNV-1">
          <mxGeometry x="360" y="610" width="60" height="100" as="geometry" />
        </mxCell>
        <mxCell id="s_mnrJMYpSLIAIfI4z18-172" value="&lt;font style=&quot;font-size: 14px;&quot;&gt;STATS-SERVICE DATABASE&lt;/font&gt;" style="rounded=1;whiteSpace=wrap;html=1;fontSize=12;" vertex="1" parent="WIyWlLk6GJQsqaUBKTNV-1">
          <mxGeometry x="707" y="805" width="120" height="90" as="geometry" />
        </mxCell>
        <mxCell id="s_mnrJMYpSLIAIfI4z18-175" value="" style="endArrow=block;startArrow=block;endFill=1;startFill=1;html=1;rounded=0;fontSize=12;" edge="1" parent="WIyWlLk6GJQsqaUBKTNV-1">
          <mxGeometry width="160" relative="1" as="geometry">
            <mxPoint x="677" y="840" as="sourcePoint" />
            <mxPoint x="707" y="840.14" as="targetPoint" />
          </mxGeometry>
        </mxCell>
      </root>
    </mxGraphModel>
  </diagram>
</mxfile>
